
<svg xmlns="http://www.w3.org/2000/svg" xml:space="preserve" viewBox="30.79 30 396.21 86.68"><path fill="#013B99" fill-rule="evenodd" d="M101.583 58.268s-3.727 11.534-6.127 14.563c0 0-3.505 7.351-7.56 12.926 0 0-4.409 6.688-11.154 12.79 0 0-9.541 9.343-19.573 9.158 0 0-7.384.271-11.1-7.515 0 0-2.683-4.925-2.768-12.043 0 0-.636-8.558.933-14.452 0 0 1.007-6.188 4.373-12.873 0 0 6.01-12.588 13.429-11.654 0 0 5.117-.163 5.55 9.074 0 0 .298 5.292-2.04 10.698 0 0-1.309 3.79-5.433 8.84 0 0-3.392 4.839-11.129 9.487l-2.428 1.52s-.131 2.247.594 4.057c0 0 6.581-3.681 12.31-8.271 0 0 8.197-6.421 12.219-11.821 0 0 4.045-4.765 6.181-11.545 0 0 1.833-5.407-1.049-10.832 0 0-1.893-2.96-4.589-4.35 0 0-5.027-3.321-12.956-1.193 0 0-4.589 1.137-9.733 4.939 0 0-5.87 4.214-10.104 11.103 0 0-2.949 4.18-6.003 12.453 0 0-2.118 5.497-2.592 13.027 0 0-.42 5.231 1.402 11.604 0 0 1.559 6.055 5.985 10.437 0 0 2.516 2.703 7.626 4.561 0 0 2.78 1.474 9.602.741 0 0 6.448-1.098 8.934-2.325 0 0 7.23-2.429 13.988-8.635 0 0 6.9-6.167 11.52-13.838 0 0 3.897-6.553 5.595-10.589 0 0 2.808-6.44 4.569-11.699 0 0 2.209-7.266 2.932-10.268l1.286-6.311c.001 0-2.319 7.557-2.69 8.236z" clip-rule="evenodd"></path><circle cx="105.957" cy="39.306" r="9.306" fill="#BA2121" fill-rule="evenodd" clip-rule="evenodd"></circle><g fill="#575757"><path d="M119.044 112.927v-12.754h1.688v11.249h6.282v1.505h-7.97zM135.208 111.787c-.58.493-1.138.841-1.675 1.044s-1.112.305-1.727.305c-1.015 0-1.795-.248-2.34-.744-.545-.496-.817-1.13-.817-1.9 0-.453.103-.866.309-1.24s.476-.674.809-.9.709-.397 1.126-.514c.308-.081.771-.159 1.392-.234 1.265-.151 2.195-.331 2.793-.54.005-.214.009-.351.009-.408 0-.639-.148-1.088-.444-1.349-.4-.354-.995-.531-1.784-.531-.736 0-1.28.13-1.631.388s-.61.715-.778 1.37l-1.531-.209c.139-.655.368-1.185.687-1.588.319-.402.78-.713 1.383-.931.604-.218 1.302-.326 2.097-.326.789 0 1.43.093 1.923.278s.855.419 1.087.7.395.637.487 1.066c.052.267.079.748.079 1.443v2.089c0 1.455.033 2.376.1 2.762.067.386.199.756.396 1.109h-1.636a3.323 3.323 0 0 1-.314-1.14zm-.13-3.497c-.569.231-1.421.429-2.558.591-.644.093-1.099.197-1.366.313a1.341 1.341 0 0 0-.836 1.253c0 .418.158.766.475 1.044.316.278.778.418 1.387.418.604 0 1.14-.132 1.61-.396a2.44 2.44 0 0 0 1.035-1.083c.168-.354.252-.876.252-1.565v-.575zM139.428 112.927v-9.239h1.409v1.4c.36-.655.692-1.087.996-1.296a1.74 1.74 0 0 1 1.005-.313c.528 0 1.064.168 1.61.505l-.54 1.453c-.383-.227-.766-.34-1.148-.34-.342 0-.65.104-.922.309a1.679 1.679 0 0 0-.583.857 6.102 6.102 0 0 0-.261 1.827v4.837h-1.566zM145.448 113.692l1.522.227c.064.47.241.812.531 1.026.389.29.919.435 1.592.435.725 0 1.285-.145 1.679-.435.394-.29.661-.696.8-1.218.081-.319.119-.989.113-2.01-.685.806-1.537 1.209-2.558 1.209-1.27 0-2.253-.458-2.949-1.375-.696-.916-1.044-2.015-1.044-3.297 0-.882.16-1.695.479-2.44s.781-1.321 1.388-1.727c.606-.406 1.318-.609 2.136-.609 1.09 0 1.989.44 2.697 1.322v-1.113h1.444v7.986c0 1.438-.146 2.458-.439 3.059-.292.6-.757 1.074-1.392 1.422-.635.349-1.417.522-2.345.522-1.102 0-1.992-.248-2.671-.744s-1.006-1.243-.983-2.24zm1.296-5.55c0 1.213.241 2.097.722 2.653.481.558 1.084.836 1.81.836.719 0 1.322-.277 1.81-.831s.731-1.423.731-2.605c0-1.132-.251-1.984-.752-2.559-.502-.574-1.106-.861-1.814-.861-.696 0-1.288.283-1.775.849s-.732 1.404-.732 2.518zM162.326 109.951l1.618.2c-.255.945-.728 1.679-1.418 2.201s-1.572.783-2.645.783c-1.352 0-2.423-.416-3.215-1.249-.792-.832-1.188-1.999-1.188-3.501 0-1.555.4-2.761 1.201-3.619s1.839-1.288 3.115-1.288c1.235 0 2.245.421 3.027 1.262.783.841 1.175 2.024 1.175 3.55 0 .093-.003.231-.009.417h-6.891c.058 1.016.345 1.792.861 2.332.516.539 1.16.809 1.932.809.574 0 1.064-.15 1.47-.452.407-.302.729-.784.967-1.445zm-5.142-2.531h5.159c-.069-.777-.267-1.36-.591-1.749-.499-.604-1.146-.904-1.94-.904-.719 0-1.324.24-1.813.722-.492.481-.763 1.124-.815 1.931zM165.64 110.169l1.548-.244c.087.621.329 1.097.727 1.428.397.33.953.495 1.666.495.719 0 1.253-.146 1.601-.439.348-.292.522-.636.522-1.03 0-.354-.153-.633-.461-.836-.215-.139-.748-.315-1.601-.53-1.148-.29-1.945-.541-2.388-.753-.444-.211-.78-.504-1.009-.878a2.33 2.33 0 0 1-.344-1.24c0-.412.094-.793.283-1.144a2.52 2.52 0 0 1 .77-.875c.244-.18.576-.332.996-.456.42-.125.872-.188 1.353-.188.725 0 1.361.104 1.91.313.548.209.953.491 1.213.848.261.357.441.834.54 1.432l-1.531.209c-.069-.476-.271-.847-.604-1.114-.333-.267-.805-.399-1.414-.399-.719 0-1.232.118-1.54.356-.308.237-.461.516-.461.835 0 .203.064.386.191.548.127.169.328.308.601.418.156.058.618.191 1.383.4 1.107.296 1.88.538 2.318.727s.782.462 1.031.821c.25.36.375.807.375 1.34 0 .522-.152 1.014-.457 1.475-.304.462-.744.818-1.318 1.07-.574.253-1.224.379-1.949.379-1.201 0-2.116-.249-2.745-.748s-1.032-1.24-1.206-2.22zM178.951 111.526l.226 1.383a5.8 5.8 0 0 1-1.183.14c-.569 0-1.009-.09-1.323-.27a1.51 1.51 0 0 1-.661-.71c-.127-.292-.191-.908-.191-1.849v-5.315h-1.148v-1.218h1.148v-2.288l1.558-.939v3.228h1.575v1.218h-1.575v5.402c0 .447.027.734.083.861a.653.653 0 0 0 .27.305c.125.075.303.113.535.113.172 0 .402-.021.686-.061zM185.771 108.829l1.592-.14c.075.639.25 1.162.526 1.57.275.409.703.74 1.283.992s1.232.379 1.958.379c.644 0 1.212-.096 1.705-.287s.86-.454 1.101-.788c.241-.333.361-.697.361-1.092 0-.4-.116-.749-.348-1.048s-.615-.55-1.148-.753c-.342-.133-1.099-.341-2.271-.622-1.171-.281-1.992-.547-2.462-.796-.609-.319-1.063-.715-1.361-1.188a2.909 2.909 0 0 1-.448-1.588c0-.644.183-1.245.548-1.805.365-.561.899-.985 1.601-1.275s1.482-.435 2.34-.435c.945 0 1.779.152 2.501.457.722.304 1.278.752 1.667 1.344.388.592.597 1.262.626 2.01l-1.618.122c-.087-.807-.381-1.415-.883-1.827-.502-.412-1.243-.618-2.223-.618-1.021 0-1.765.188-2.231.562s-.7.825-.7 1.353c0 .459.165.836.496 1.131.325.296 1.173.6 2.544.909 1.372.311 2.313.582 2.823.813.742.343 1.291.776 1.645 1.301.354.525.53 1.13.53 1.814 0 .679-.194 1.317-.583 1.918-.389.601-.947 1.067-1.675 1.4-.728.334-1.547.501-2.458.501-1.154 0-2.121-.169-2.901-.505s-1.392-.843-1.835-1.519c-.446-.673-.679-1.437-.702-2.29zM204.71 109.951l1.618.2c-.255.945-.728 1.679-1.418 2.201s-1.572.783-2.645.783c-1.352 0-2.423-.416-3.215-1.249-.792-.832-1.188-1.999-1.188-3.501 0-1.555.4-2.761 1.201-3.619s1.839-1.288 3.115-1.288c1.235 0 2.245.421 3.027 1.262.783.841 1.175 2.024 1.175 3.55 0 .093-.003.231-.009.417h-6.891c.058 1.016.345 1.792.861 2.332.516.539 1.16.809 1.932.809.574 0 1.064-.15 1.47-.452.407-.302.729-.784.967-1.445zm-5.142-2.531h5.159c-.069-.777-.267-1.36-.591-1.749-.499-.604-1.146-.904-1.94-.904-.719 0-1.324.24-1.813.722-.491.481-.763 1.124-.815 1.931zM214.68 111.787c-.58.493-1.138.841-1.675 1.044s-1.112.305-1.727.305c-1.015 0-1.795-.248-2.34-.744-.545-.496-.817-1.13-.817-1.9 0-.453.103-.866.309-1.24s.476-.674.809-.9.709-.397 1.126-.514c.308-.081.771-.159 1.392-.234 1.265-.151 2.195-.331 2.793-.54.005-.214.009-.351.009-.408 0-.639-.148-1.088-.444-1.349-.4-.354-.995-.531-1.784-.531-.736 0-1.28.13-1.631.388s-.61.715-.778 1.37l-1.531-.209c.139-.655.368-1.185.687-1.588.319-.402.78-.713 1.383-.931.604-.218 1.302-.326 2.097-.326.789 0 1.43.093 1.923.278s.855.419 1.087.7.395.637.487 1.066c.052.267.079.748.079 1.443v2.089c0 1.455.033 2.376.1 2.762.067.386.199.756.396 1.109h-1.636a3.301 3.301 0 0 1-.314-1.14zm-.131-3.497c-.569.231-1.421.429-2.558.591-.644.093-1.099.197-1.366.313a1.341 1.341 0 0 0-.836 1.253c0 .418.158.766.475 1.044.316.278.778.418 1.387.418.604 0 1.14-.132 1.61-.396a2.44 2.44 0 0 0 1.035-1.083c.168-.354.252-.876.252-1.565v-.575zM218.899 112.927v-9.239h1.409v1.4c.36-.655.692-1.087.996-1.296a1.74 1.74 0 0 1 1.005-.313c.528 0 1.064.168 1.61.505l-.54 1.453c-.383-.227-.766-.34-1.148-.34-.342 0-.65.104-.922.309a1.679 1.679 0 0 0-.583.857 6.102 6.102 0 0 0-.261 1.827v4.837h-1.566zM231.235 109.542l1.54.2c-.168 1.062-.599 1.893-1.292 2.493-.692.6-1.544.9-2.554.9-1.264 0-2.281-.413-3.049-1.24-.769-.826-1.153-2.011-1.153-3.554 0-.997.166-1.87.496-2.618.331-.749.833-1.31 1.509-1.684s1.411-.562 2.206-.562c1.004 0 1.824.254 2.463.762.638.507 1.047 1.228 1.227 2.161l-1.522.235c-.146-.621-.401-1.088-.771-1.4-.368-.313-.813-.47-1.335-.47-.789 0-1.43.282-1.923.848s-.739 1.46-.739 2.685c0 1.241.238 2.143.713 2.705s1.096.844 1.862.844c.615 0 1.128-.188 1.541-.565.41-.377.672-.957.781-1.74zM234.472 112.927v-12.754h1.565v4.576c.731-.847 1.653-1.271 2.767-1.271.685 0 1.279.135 1.784.404.504.27.865.643 1.083 1.118.217.476.326 1.166.326 2.07v5.855h-1.566v-5.855c0-.782-.169-1.353-.509-1.709-.339-.356-.819-.535-1.439-.535-.465 0-.9.12-1.31.361-.409.24-.7.566-.874.979-.175.412-.262.98-.262 1.705v5.055h-1.565zM250.766 111.787c-.579.493-1.138.841-1.674 1.044a4.843 4.843 0 0 1-1.728.305c-1.015 0-1.795-.248-2.34-.744-.546-.496-.818-1.13-.818-1.9 0-.453.104-.866.31-1.24.205-.374.475-.674.809-.9a3.803 3.803 0 0 1 1.127-.514c.307-.081.771-.159 1.392-.234 1.265-.151 2.195-.331 2.793-.54.006-.214.009-.351.009-.408 0-.639-.148-1.088-.444-1.349-.399-.354-.994-.531-1.783-.531-.736 0-1.28.13-1.631.388-.352.258-.61.715-.779 1.37l-1.531-.209c.14-.655.369-1.185.688-1.588.319-.402.78-.713 1.384-.931.603-.218 1.302-.326 2.097-.326.788 0 1.43.093 1.923.278.492.186.855.419 1.087.7.232.281.395.637.487 1.066.053.267.078.748.078 1.443v2.089c0 1.455.033 2.376.101 2.762.066.386.198.756.396 1.109h-1.636a3.258 3.258 0 0 1-.317-1.14zm-.13-3.497c-.568.231-1.421.429-2.558.591-.645.093-1.1.197-1.366.313s-.473.286-.618.509a1.34 1.34 0 0 0-.217.744c0 .418.157.766.474 1.044s.779.418 1.388.418c.604 0 1.14-.132 1.609-.396.47-.264.815-.625 1.036-1.083.168-.354.252-.876.252-1.565v-.575zM256.448 112.927h-1.453v-12.754h1.565v4.55c.661-.829 1.506-1.244 2.532-1.244a3.86 3.86 0 0 1 1.613.344c.508.229.926.551 1.253.966.328.415.585.915.771 1.501s.278 1.212.278 1.879c0 1.583-.392 2.808-1.175 3.671-.783.864-1.723 1.297-2.818 1.297-1.091 0-1.946-.455-2.566-1.366v1.156zm-.017-4.69c0 1.108.15 1.908.452 2.401.493.807 1.16 1.209 2.001 1.209.685 0 1.276-.297 1.774-.892.499-.595.749-1.48.749-2.657 0-1.207-.239-2.098-.718-2.671-.479-.574-1.058-.861-1.736-.861-.685 0-1.275.297-1.774.892s-.748 1.454-.748 2.579zM265.234 112.927v-12.754h1.566v12.754h-1.566zM275.908 109.951l1.618.2c-.255.945-.728 1.679-1.418 2.201s-1.571.783-2.645.783c-1.352 0-2.423-.416-3.215-1.249-.791-.832-1.188-1.999-1.188-3.501 0-1.555.4-2.761 1.201-3.619.8-.858 1.838-1.288 3.114-1.288 1.235 0 2.244.421 3.027 1.262s1.175 2.024 1.175 3.55c0 .093-.003.231-.009.417h-6.891c.058 1.016.345 1.792.861 2.332.517.539 1.16.809 1.932.809.574 0 1.064-.15 1.471-.452.408-.302.73-.784.967-1.445zm-5.141-2.531h5.159c-.069-.777-.267-1.36-.592-1.749-.498-.604-1.146-.904-1.939-.904-.72 0-1.324.24-1.814.722s-.762 1.124-.814 1.931zM285.286 112.927v-12.754h4.785c.975 0 1.756.129 2.345.387s1.05.655 1.384 1.192c.333.536.5 1.098.5 1.683 0 .546-.148 1.059-.444 1.54-.295.481-.742.87-1.339 1.166.771.227 1.364.612 1.778 1.157.415.545.622 1.189.622 1.932a3.73 3.73 0 0 1-.378 1.666c-.253.513-.564.909-.936 1.188s-.837.488-1.396.631c-.56.142-1.245.213-2.058.213h-4.863zm1.689-7.395h2.758c.748 0 1.284-.05 1.609-.148.429-.128.752-.339.97-.635s.326-.667.326-1.114c0-.423-.102-.796-.305-1.117a1.534 1.534 0 0 0-.869-.661c-.378-.119-1.024-.179-1.94-.179h-2.549v3.854zm0 5.89h3.175c.546 0 .929-.021 1.148-.062.389-.069.714-.186.975-.348s.476-.398.644-.709a2.21 2.21 0 0 0 .253-1.074c0-.476-.122-.889-.365-1.24a1.929 1.929 0 0 0-1.014-.739c-.433-.142-1.055-.213-1.866-.213h-2.949v4.385zM305.191 111.422v1.505h-8.431c-.012-.377.05-.739.183-1.088.215-.574.559-1.14 1.031-1.696s1.155-1.2 2.049-1.932c1.387-1.137 2.323-2.037 2.811-2.701s.73-1.292.73-1.884c0-.62-.222-1.144-.665-1.57-.444-.426-1.022-.639-1.736-.639-.754 0-1.357.226-1.81.679-.452.452-.682 1.078-.688 1.879l-1.609-.165c.11-1.201.525-2.116 1.244-2.745.72-.63 1.685-.944 2.897-.944 1.224 0 2.192.34 2.905 1.019.714.678 1.07 1.52 1.07 2.522 0 .511-.104 1.013-.313 1.505-.208.493-.555 1.013-1.039 1.558s-1.289 1.294-2.414 2.244c-.94.789-1.543 1.324-1.81 1.605a5.043 5.043 0 0 0-.661.849h6.256zM307.792 112.927v-12.754h4.785c.975 0 1.756.129 2.345.387s1.05.655 1.384 1.192c.333.536.5 1.098.5 1.683 0 .546-.148 1.059-.444 1.54-.295.481-.742.87-1.339 1.166.771.227 1.364.612 1.778 1.157.415.545.622 1.189.622 1.932a3.73 3.73 0 0 1-.378 1.666c-.253.513-.564.909-.936 1.188s-.837.488-1.396.631c-.56.142-1.245.213-2.058.213h-4.863zm1.688-7.395h2.758c.748 0 1.284-.05 1.609-.148.429-.128.752-.339.97-.635s.326-.667.326-1.114c0-.423-.102-.796-.305-1.117a1.534 1.534 0 0 0-.869-.661c-.378-.119-1.024-.179-1.94-.179h-2.549v3.854zm0 5.89h3.175c.546 0 .929-.021 1.148-.062.389-.069.714-.186.975-.348s.476-.398.644-.709a2.21 2.21 0 0 0 .253-1.074c0-.476-.122-.889-.365-1.24a1.929 1.929 0 0 0-1.014-.739c-.433-.142-1.055-.213-1.866-.213h-2.949v4.385zM325.357 112.927v-12.754h2.541l3.019 9.03c.278.841.481 1.471.608 1.888a89.02 89.02 0 0 1 .679-2.044l3.054-8.874h2.271v12.754h-1.627v-10.675l-3.707 10.675h-1.522l-3.688-10.857v10.857h-1.628zM346.437 111.787c-.579.493-1.138.841-1.674 1.044a4.843 4.843 0 0 1-1.728.305c-1.015 0-1.795-.248-2.34-.744-.546-.496-.818-1.13-.818-1.9 0-.453.104-.866.31-1.24.205-.374.475-.674.809-.9a3.803 3.803 0 0 1 1.127-.514c.307-.081.771-.159 1.392-.234 1.265-.151 2.195-.331 2.793-.54.006-.214.009-.351.009-.408 0-.639-.148-1.088-.444-1.349-.399-.354-.994-.531-1.783-.531-.736 0-1.28.13-1.631.388-.352.258-.61.715-.779 1.37l-1.531-.209c.14-.655.369-1.185.688-1.588.319-.402.78-.713 1.384-.931.603-.218 1.302-.326 2.097-.326.788 0 1.43.093 1.923.278.492.186.855.419 1.087.7.232.281.395.637.487 1.066.053.267.078.748.078 1.443v2.089c0 1.455.033 2.376.101 2.762.066.386.198.756.396 1.109h-1.636a3.237 3.237 0 0 1-.317-1.14zm-.13-3.497c-.568.231-1.421.429-2.558.591-.645.093-1.1.197-1.366.313s-.473.286-.618.509a1.34 1.34 0 0 0-.217.744c0 .418.157.766.474 1.044s.779.418 1.388.418c.604 0 1.14-.132 1.609-.396.47-.264.815-.625 1.036-1.083.168-.354.252-.876.252-1.565v-.575zM350.656 112.927v-9.239h1.409v1.4c.359-.655.691-1.087.996-1.296s.64-.313 1.005-.313c.527 0 1.064.168 1.609.505l-.539 1.453c-.383-.227-.766-.34-1.148-.34-.343 0-.649.104-.922.309a1.667 1.667 0 0 0-.583.857 6.101 6.101 0 0 0-.262 1.827v4.837h-1.565zM356.973 112.927v-12.754h1.565v7.272l3.706-3.758h2.027l-3.532 3.428 3.889 5.812h-1.931l-3.054-4.724-1.105 1.061v3.663h-1.565zM372.553 109.951l1.618.2c-.255.945-.728 1.679-1.418 2.201s-1.571.783-2.645.783c-1.352 0-2.423-.416-3.215-1.249-.791-.832-1.188-1.999-1.188-3.501 0-1.555.4-2.761 1.201-3.619.8-.858 1.838-1.288 3.114-1.288 1.235 0 2.244.421 3.027 1.262s1.175 2.024 1.175 3.55c0 .093-.003.231-.009.417h-6.891c.058 1.016.345 1.792.861 2.332.517.539 1.16.809 1.932.809.574 0 1.064-.15 1.471-.452.407-.302.729-.784.967-1.445zm-5.142-2.531h5.159c-.069-.777-.267-1.36-.592-1.749-.498-.604-1.146-.904-1.939-.904-.72 0-1.324.24-1.814.722s-.761 1.124-.814 1.931zM379.913 111.526l.226 1.383c-.44.093-.835.14-1.183.14-.568 0-1.01-.09-1.322-.27a1.51 1.51 0 0 1-.661-.71c-.128-.292-.191-.908-.191-1.849v-5.315h-1.148v-1.218h1.148v-2.288l1.557-.939v3.228h1.575v1.218h-1.575v5.402c0 .447.027.734.083.861.055.128.145.229.27.305s.303.113.535.113c.172 0 .402-.021.686-.061zM381.801 116.468v-12.78h1.427v1.2c.336-.47.716-.822 1.14-1.057.423-.235.937-.353 1.54-.353.788 0 1.484.203 2.088.609.603.405 1.059.979 1.365 1.718.308.739.462 1.55.462 2.432 0 .945-.17 1.797-.51 2.554-.339.757-.832 1.337-1.479 1.74-.646.402-1.327.604-2.04.604-.522 0-.99-.11-1.405-.331a3.173 3.173 0 0 1-1.022-.835v4.498h-1.566zm1.418-8.109c0 1.188.24 2.067.722 2.636s1.064.853 1.749.853c.696 0 1.292-.294 1.788-.883.495-.589.743-1.501.743-2.736 0-1.177-.242-2.059-.726-2.645-.484-.586-1.063-.879-1.736-.879-.667 0-1.257.313-1.771.936-.512.623-.769 1.529-.769 2.718zM392.031 112.927v-12.754h1.566v12.754h-1.566zM402.41 111.787c-.579.493-1.138.841-1.674 1.044a4.843 4.843 0 0 1-1.728.305c-1.015 0-1.795-.248-2.34-.744-.546-.496-.818-1.13-.818-1.9 0-.453.104-.866.31-1.24.205-.374.475-.674.809-.9a3.803 3.803 0 0 1 1.127-.514c.307-.081.771-.159 1.392-.234 1.265-.151 2.195-.331 2.793-.54.006-.214.009-.351.009-.408 0-.639-.148-1.088-.444-1.349-.399-.354-.994-.531-1.783-.531-.736 0-1.28.13-1.631.388-.352.258-.61.715-.779 1.37l-1.531-.209c.14-.655.369-1.185.688-1.588.319-.402.78-.713 1.384-.931.603-.218 1.302-.326 2.097-.326.788 0 1.43.093 1.923.278.492.186.855.419 1.087.7.232.281.395.637.487 1.066.053.267.078.748.078 1.443v2.089c0 1.455.033 2.376.101 2.762.066.386.198.756.396 1.109h-1.636a3.28 3.28 0 0 1-.317-1.14zm-.13-3.497c-.568.231-1.421.429-2.558.591-.645.093-1.1.197-1.366.313s-.473.286-.618.509a1.34 1.34 0 0 0-.217.744c0 .418.157.766.474 1.044s.779.418 1.388.418c.604 0 1.14-.132 1.609-.396.47-.264.815-.625 1.036-1.083.168-.354.252-.876.252-1.565v-.575zM412.676 109.542l1.54.2c-.168 1.062-.599 1.893-1.292 2.493-.692.6-1.544.9-2.553.9-1.265 0-2.281-.413-3.05-1.24-.769-.826-1.152-2.011-1.152-3.554 0-.997.165-1.87.496-2.618.33-.749.833-1.31 1.509-1.684s1.411-.562 2.206-.562c1.003 0 1.823.254 2.462.762.638.507 1.047 1.228 1.227 2.161l-1.522.235c-.146-.621-.401-1.088-.771-1.4-.368-.313-.813-.47-1.335-.47-.789 0-1.43.282-1.923.848s-.739 1.46-.739 2.685c0 1.241.237 2.143.713 2.705s1.097.844 1.862.844c.614 0 1.128-.188 1.54-.565.411-.377.672-.957.782-1.74zM422.236 109.951l1.618.2c-.255.945-.728 1.679-1.418 2.201s-1.571.783-2.645.783c-1.352 0-2.423-.416-3.215-1.249-.791-.832-1.188-1.999-1.188-3.501 0-1.555.4-2.761 1.201-3.619.8-.858 1.838-1.288 3.114-1.288 1.235 0 2.244.421 3.027 1.262s1.175 2.024 1.175 3.55c0 .093-.003.231-.009.417h-6.891c.058 1.016.345 1.792.861 2.332.517.539 1.16.809 1.932.809.574 0 1.064-.15 1.471-.452.408-.302.73-.784.967-1.445zm-5.141-2.531h5.159c-.069-.777-.267-1.36-.592-1.749-.498-.604-1.146-.904-1.939-.904-.72 0-1.324.24-1.814.722s-.762 1.124-.814 1.931z"></path></g><path fill="#335A9A" fill-rule="evenodd" d="M119 92h308v2H119z" clip-rule="evenodd"></path><path fill="#013892" d="M134.359 80.771h-14.78V52.636h14.78v4.147h-9.5v7.107h8.715v4.074h-8.715v8.733h9.5v4.074zM152.958 80.771h-5.426l-2.046-4.604-.42-1.918-.53 1.918-2.046 4.604h-5.536l5.536-10.816-5.243-10.286H143l1.699 4.221.438 1.535.42-1.535 1.827-4.221h5.5l-5.28 10.286 5.354 10.816zM170.368 73.957c0 3.971-1.121 6.346-3.362 7.125a6.396 6.396 0 0 1-1.754.22 4.822 4.822 0 0 1-2.521-.713c-.792-.476-1.438-1.199-1.937-2.174v9.427h-4.604V59.669h4.824v2.32c.292-.889.819-1.599 1.58-2.128s1.647-.794 2.658-.794c1.839 0 3.152.779 3.938 2.338s1.178 3.386 1.178 5.481v7.071zm-4.823-.073V66.21c0-1.169-.162-2.028-.484-2.576-.323-.548-.922-.822-1.799-.822-.682 0-1.228.326-1.635.978-.408.652-.612 1.532-.612 2.64v7.6c0 2.144.676 3.319 2.028 3.526 1.667 0 2.502-1.224 2.502-3.672zM190.099 73.463c0 1.559-.192 2.929-.575 4.111a5.303 5.303 0 0 1-2.12 2.822c-1.029.701-2.463 1.051-4.302 1.051-1.73 0-3.088-.191-4.074-.575-.987-.384-1.742-.999-2.266-1.846-.524-.846-.877-1.961-1.06-3.343-.183-1.382-.274-3.194-.274-5.436 0-1.096.019-2.049.055-2.859s.103-1.574.201-2.293c.183-1.352.53-2.476 1.042-3.371.512-.896 1.257-1.562 2.238-2 .98-.438 2.28-.658 3.9-.658 1.608 0 2.89.219 3.846.658s1.678 1.099 2.165 1.982c.487.883.813 1.964.978 3.243s.247 2.899.247 4.86v3.654zm-4.842 1.097v-7.454c0-1.096-.055-1.942-.165-2.54-.109-.597-.341-1.038-.694-1.325-.354-.286-.865-.429-1.535-.429-1.023 0-1.702.314-2.037.941-.335.627-.502 1.672-.502 3.133v7.673c0 .986.204 1.745.612 2.274.408.53 1.001.795 1.781.795.925 0 1.58-.229 1.964-.685.384-.456.576-1.251.576-2.383zM204.806 64.968h-.95c-1.096 0-2.007.247-2.731.74-.725.493-1.087 1.495-1.087 3.005v12.058h-4.86V59.669h4.677v3.928c1.06-2.875 2.71-4.312 4.951-4.312v5.683zM215.493 80.845l-1.224.073c-.584.061-.941.091-1.069.091h-.319c-2.899 0-4.349-1.206-4.349-3.617v-14.25h-1.937V59.67h1.937v-5.883h4.915v5.883h2.046v3.472h-2.046v12.423c0 .5.046.844.137 1.032a.587.587 0 0 0 .457.338c.213.037.411.062.594.073.183.013.469.019.858.019v3.818zM233.78 71.18h-9.701v3.234c0 1.084.204 1.891.612 2.42.408.53.977.795 1.708.795.134-.049.335-.073.603-.073.633-.097 1.096-.441 1.389-1.032.292-.591.438-1.556.438-2.896h4.86c0 2.521-.524 4.415-1.571 5.682-.536.658-1.203 1.154-2.001 1.489s-1.739.503-2.822.503c-1.06 0-2.01-.067-2.85-.201-.841-.135-1.675-.479-2.503-1.032-.828-.555-1.495-1.432-2-2.631-.505-1.2-.758-2.798-.758-4.796v-6.285c0-2.752.722-4.656 2.165-5.709s3.2-1.58 5.271-1.58c.804 0 1.525.061 2.165.183a7.304 7.304 0 0 1 1.708.53c.95.451 1.662 1.075 2.138 1.873.475.798.785 1.717.932 2.759.146 1.042.219 2.33.219 3.864v2.903zm-4.878-3.691v-2.138c0-.755-.149-1.367-.447-1.836-.299-.469-.959-.704-1.982-.704-1.596 0-2.394.847-2.394 2.54v2.138h4.823zM248.561 64.968h-.95c-1.096 0-2.007.247-2.731.74-.725.493-1.087 1.495-1.087 3.005v12.058h-4.859V59.669h4.677v3.928c1.06-2.875 2.71-4.312 4.951-4.312v5.683zM265.094 66.064h-4.987c0-1.206-.18-2.043-.539-2.512-.359-.469-.898-.703-1.617-.703-.597 0-1.103.146-1.517.438s-.621.707-.621 1.242c.098.719.348 1.23.749 1.535.366.317.779.64 1.243.968.462.329 1.041.725 1.735 1.188 1.352.877 2.356 1.574 3.015 2.092.657.518 1.233 1.178 1.727 1.982.493.804.739 1.76.739 2.868 0 .317-.018.637-.055.96a9.74 9.74 0 0 1-.183 1.05c-.584 2.802-2.966 4.202-7.144 4.202-1.255 0-2.387-.231-3.398-.694-1.011-.462-1.823-1.193-2.438-2.192-.615-.998-.923-2.234-.923-3.708v-.511c0-.158.012-.311.037-.457h4.896l-.072 1.042c0 .962.186 1.703.557 2.22s.923.776 1.653.776c1.389-.183 2.083-.871 2.083-2.064 0-.877-.262-1.535-.785-1.974-.159-.134-.95-.669-2.376-1.608-.693-.45-1.349-.907-1.964-1.37s-1.147-.895-1.599-1.297c-.938-.853-1.564-1.76-1.882-2.723-.183-.572-.328-1.395-.438-2.466 0-1.839.707-3.167 2.12-3.983 1.412-.816 3.1-1.224 5.061-1.224 1.437 0 2.673.226 3.709.676 1.035.451 1.829 1.19 2.384 2.22.552 1.028.83 2.371.83 4.027z"></path><path fill="#B00101" d="M274.977 80.771h-5.262V52.636h5.262v28.135zM294.708 80.771h-4.787V66.356c0-1.047-.146-1.827-.438-2.338-.158-.256-.368-.454-.63-.594s-.588-.21-.978-.21c-.73 0-1.321.28-1.772.84-.45.561-.676 1.377-.676 2.448v14.269h-4.859V59.669h4.859v2.394c.292-.914.864-1.629 1.718-2.147a5.253 5.253 0 0 1 2.776-.776c1.328 0 2.458.405 3.39 1.215s1.397 1.964 1.397 3.462v16.954zM313.982 80.771h-4.823v-2.394a4.32 4.32 0 0 1-1.681 2.192c-.792.536-1.693.804-2.704.804-.5 0-1.023-.072-1.571-.219-2.314-.768-3.472-3.252-3.472-7.454v-7.27c0-4.385 1.334-6.815 4.001-7.29l.621-.037.622-.036c1.096 0 1.979.231 2.648.694.67.463 1.23 1.182 1.681 2.156l-.146-1.023v-8.258h4.823v28.135zm-4.823-7.07v-7.199c0-1.108-.204-2-.612-2.676-.408-.676-.989-1.014-1.745-1.014-.828 0-1.397.317-1.708.95s-.466 1.547-.466 2.74v7.199c0 1.267.207 2.238.621 2.914s.932 1.014 1.553 1.014c.646 0 1.2-.313 1.663-.94.463-.628.694-1.624.694-2.988zM324.798 57.075h-4.823v-4.439h4.823v4.439zm0 23.696h-4.823V59.669h4.823v21.102zM344.82 80.771h-4.678c-.085-.256-.194-.815-.328-1.681.048-.183.072-.408.072-.676-1.157 1.924-2.667 2.887-4.53 2.887-.707 0-1.492-.128-2.357-.384-2.046-.683-3.069-2.491-3.069-5.427 0-1.717.311-3.054.932-4.01.622-.956 1.511-1.763 2.668-2.42.28-.17.643-.356 1.087-.558.444-.201 1.008-.447 1.69-.74 1.303-.536 2.149-.98 2.539-1.333.499-.426.749-.987.749-1.681 0-1.291-.81-1.937-2.43-1.937-.487 0-.877.046-1.169.137-.293.091-.506.228-.64.411-.28.377-.463.743-.548 1.096a6.774 6.774 0 0 0-.092.639c-.024.244-.036.53-.036.859h-4.586c0-1.729.268-3.088.804-4.074a4.68 4.68 0 0 1 2.375-2.138 9.478 9.478 0 0 1 1.772-.493 12.06 12.06 0 0 1 2.192-.183c1.692 0 3.069.21 4.129.63 1.06.42 1.833 1.057 2.32 1.91s.73 1.9.73 3.142v12.734c.002 1.342.136 2.438.404 3.29zm-5.299-8.751v-2.375l-1.827 1.133c-.109.073-.311.21-.603.411-.292.201-.578.417-.858.648-.391.317-.74.74-1.051 1.27-.311.53-.502 1.136-.575 1.818.097.829.325 1.456.685 1.881.359.427.929.701 1.709.822.572-.073.925-.152 1.06-.237a2.746 2.746 0 0 0 1.133-1.443c.218-.621.327-1.93.327-3.928z"></path><path fill="#013892" d="M356.53 80.771h-4.933v-4.987h4.933v4.987zM376.079 74.56c0 1.56-.25 2.841-.749 3.846a4.799 4.799 0 0 1-2.248 2.238c-.998.487-2.234.73-3.708.73-1.377 0-2.559-.265-3.545-.794a5.29 5.29 0 0 1-2.256-2.33c-.519-1.022-.776-2.253-.776-3.69v-7.6c0-2.326.341-4.062 1.022-5.207.683-1.145 1.48-1.87 2.394-2.174.438-.146.935-.268 1.489-.365a9.454 9.454 0 0 1 4.613.329c.974.317 1.741.816 2.302 1.499a5.493 5.493 0 0 1 1.124 1.955c.225.707.338 2.028.338 3.965h-4.915v-2.503c0-.463-.168-.853-.502-1.169a1.71 1.71 0 0 0-1.216-.475c-.487 0-.901.216-1.242.648-.341.433-.512 1.087-.512 1.964v9.135c0 1.998.561 2.996 1.682 2.996 1.193 0 1.79-.998 1.79-2.996v-2.064h4.915v2.062zM394.951 73.463c0 1.559-.191 2.929-.575 4.111s-1.091 2.122-2.119 2.822c-1.029.701-2.464 1.051-4.303 1.051-1.729 0-3.088-.191-4.074-.575s-1.742-.999-2.266-1.846c-.523-.846-.877-1.961-1.06-3.343-.183-1.382-.274-3.194-.274-5.436 0-1.096.019-2.049.055-2.859.037-.81.104-1.574.201-2.293.183-1.352.53-2.476 1.042-3.371.511-.896 1.257-1.562 2.237-2s2.281-.658 3.901-.658c1.607 0 2.889.219 3.846.658.956.438 1.678 1.099 2.165 1.982.486.883.813 1.964.978 3.243.164 1.279.246 2.899.246 4.86v3.654zm-4.842 1.097v-7.454c0-1.096-.055-1.942-.164-2.54-.109-.597-.341-1.038-.694-1.325-.354-.286-.865-.429-1.534-.429-1.023 0-1.703.314-2.037.941-.336.627-.503 1.672-.503 3.133v7.673c0 .986.204 1.745.612 2.274.408.53 1.002.795 1.781.795.926 0 1.58-.229 1.964-.685.384-.456.575-1.251.575-2.383zM424.42 80.771h-4.896v-14.78c0-1.108-.187-1.909-.558-2.403-.372-.493-.983-.74-1.836-.74-1.571 0-2.357 1.169-2.357 3.508v14.415h-4.896V65.717c0-.986-.194-1.717-.584-2.192-.391-.475-1.018-.712-1.882-.712-.427 0-.795.08-1.105.238s-.558.383-.74.676c-.341.536-.512 1.389-.512 2.558v14.488h-4.841V59.669h4.841v2.156h.073c.341-.877.947-1.544 1.818-2.001a6.053 6.053 0 0 1 2.859-.685c.718 0 1.412.11 2.082.329s1.218.527 1.645.922c.427.396.694.875.804 1.435.378-.877 1.021-1.544 1.928-2.001a6.505 6.505 0 0 1 2.969-.685c1.4 0 2.615.378 3.646 1.133 1.028.755 1.543 1.815 1.543 3.179v17.32z"></path></svg>